<svg xmlns="http://www.w3.org/2000/svg" viewBox="0 0 64 64" width="64" height="64">
  <!-- Everything uses a single color -->
  <g fill="none" stroke="currentColor" stroke-width="2" stroke-linejoin="round">
    <!-- Ground line -->
    <line x1="6" y1="52" x2="58" y2="52" />

    <!-- Left (tallest) building -->
    <rect x="8" y="16" width="16" height="36" />
    <!-- Door -->
    <rect x="14" y="42" width="4" height="10" />
    <!-- Windows -->
    <rect x="11" y="20" width="3" height="3" />
    <rect x="18" y="20" width="3" height="3" />
    <rect x="11" y="26" width="3" height="3" />
    <rect x="18" y="26" width="3" height="3" />
    <rect x="11" y="32" width="3" height="3" />
    <rect x="18" y="32" width="3" height="3" />

    <!-- Middle building -->
    <rect x="26" y="22" width="14" height="30" />
    <!-- Door -->
    <rect x="31" y="42" width="4" height="10" />
    <!-- Windows -->
    <rect x="28" y="26" width="3" height="3" />
    <rect x="35" y="26" width="3" height="3" />
    <rect x="28" y="32" width="3" height="3" />
    <rect x="35" y="32" width="3" height="3" />

    <!-- Right (shortest) building -->
    <rect x="44" y="26" width="12" height="26" />
    <!-- Door -->
    <rect x="49" y="42" width="4" height="10" />
    <!-- Windows -->
    <rect x="46" y="30" width="3" height="3" />
    <rect x="53" y="30" width="3" height="3" />
    <rect x="46" y="36" width="3" height="3" />
    <rect x="53" y="36" width="3" height="3" />
  </g>
</svg>
